<?xml version="1.0" standalone="no"?>
<!DOCTYPE svg PUBLIC "-//W3C//DTD SVG 20010904//EN"
 "http://www.w3.org/TR/2001/REC-SVG-20010904/DTD/svg10.dtd">
<svg version="1.0" xmlns="http://www.w3.org/2000/svg"
 width="353.000000pt" height="589.000000pt" viewBox="0 0 353.000000 589.000000"
 preserveAspectRatio="xMidYMid meet">

<g transform="translate(0.000000,589.000000) scale(0.100000,-0.100000)"
fill="#000000" stroke="none">
<path d="M1762 5830 c-13 -41 -26 -106 -51 -253 -10 -59 -21 -111 -24 -114 -3
-3 -54 27 -113 66 l-106 72 48 -88 c26 -48 65 -122 86 -163 l38 -75 0 -760 c1
-418 1 -825 0 -903 l0 -144 -52 42 c-48 38 -216 189 -423 380 -227 211 -386
350 -394 346 -8 -5 -54 40 -62 61 -4 10 -66 68 -198 185 l-53 48 67 127 c37
71 73 135 80 143 7 8 37 58 67 110 31 52 101 173 157 268 128 220 184 322 173
322 -13 0 -962 -957 -962 -971 0 -13 16 -29 225 -224 77 -71 180 -171 230
-221 49 -50 162 -158 250 -239 88 -81 237 -222 330 -314 94 -92 223 -216 288
-276 64 -59 117 -114 117 -120 0 -7 -51 -60 -112 -119 -62 -58 -119 -112 -126
-118 -7 -7 -41 -43 -75 -79 -34 -37 -188 -186 -342 -332 -154 -146 -314 -301
-356 -344 -42 -43 -127 -125 -190 -183 -63 -58 -147 -137 -187 -175 l-74 -71
192 -182 c105 -100 196 -180 201 -177 5 4 9 13 9 21 0 8 9 14 21 14 11 0 17 5
14 10 -5 8 30 13 61 9 4 0 10 5 14 11 13 21 30 0 30 -37 0 -32 -2 -35 -25 -31
-13 3 -26 0 -29 -6 -2 -6 -5 0 -6 14 -1 14 -4 19 -7 12 -2 -6 -9 -10 -14 -6
-11 6 -12 -10 -1 -20 4 -4 7 -11 7 -14 1 -11 29 -52 36 -52 4 0 10 11 13 25 4
17 13 25 27 25 18 0 20 4 14 30 -9 41 4 58 20 26 23 -43 26 -79 10 -110 -16
-30 -20 -93 -7 -112 4 -6 17 -14 29 -18 13 -4 23 -12 23 -17 0 -6 -5 -7 -11
-3 -32 19 19 -41 98 -115 48 -46 142 -136 209 -200 66 -64 127 -121 135 -127
8 -6 23 -22 35 -35 48 -55 547 -534 560 -537 8 -2 14 2 14 10 0 8 4 6 11 -5 6
-9 14 -15 18 -12 5 2 11 -4 14 -15 3 -11 13 -20 24 -20 12 0 18 -8 19 -26 2
-24 1 -25 -17 -8 -11 9 -21 15 -23 13 -2 -2 6 -11 18 -21 22 -16 25 -14 134
94 77 76 112 117 111 132 -1 17 -2 17 -6 4 -2 -10 -7 -18 -9 -18 -11 0 -53 56
-54 70 0 13 2 13 9 1 8 -12 13 -11 30 10 18 20 22 22 31 9 5 -8 10 -10 10 -4
0 6 -7 17 -15 24 -23 19 -18 35 19 61 19 13 32 27 30 31 -10 16 19 8 31 -8 10
-14 15 -15 35 -4 23 12 23 12 17 -29 -3 -22 -3 -41 -1 -41 3 0 27 21 54 46 49
46 60 73 41 103 -12 19 -2 43 15 37 9 -3 14 2 14 14 0 21 8 24 34 14 19 -7 21
-35 3 -54 -6 -8 20 15 60 51 50 44 72 71 73 88 0 17 4 22 16 17 22 -8 215 180
207 201 -5 12 -7 12 -14 1 -4 -7 -16 -13 -26 -13 -13 0 -17 -6 -15 -22 4 -27
-13 -30 -27 -6 -9 16 -12 16 -20 3 -6 -8 -11 -12 -13 -10 -2 3 -8 14 -15 25
-6 11 -16 19 -22 18 -13 -4 -15 33 -2 42 6 3 15 -3 20 -12 10 -17 12 -17 26 1
14 19 15 19 16 -10 1 -28 1 -28 8 -4 4 14 14 25 23 25 8 0 22 6 30 12 11 10
18 7 32 -12 11 -14 23 -25 28 -25 20 0 108 93 103 109 -5 19 4 36 25 44 12 4
11 6 -2 6 -10 1 -18 5 -18 10 0 14 33 18 52 7 15 -9 47 18 206 177 160 160
188 192 184 213 -5 26 7 31 25 13 9 -9 44 20 143 117 l131 129 -118 115 c-301
291 -452 429 -456 417 -3 -6 -6 -2 -6 10 -1 14 -67 84 -203 214 -112 106 -243
232 -293 281 -49 48 -96 94 -103 101 -76 69 -272 275 -272 285 0 15 -3 12 190
192 80 74 174 164 210 200 36 36 115 113 175 170 100 94 590 561 789 752 l81
77 -155 156 c-86 87 -160 153 -167 151 -8 -3 -13 2 -13 12 0 9 -146 163 -325
342 -179 178 -325 322 -325 318 0 -6 254 -449 414 -723 93 -158 136 -239 136
-253 0 -5 -46 -49 -102 -98 -57 -49 -213 -190 -347 -314 -275 -253 -634 -575
-692 -621 l-38 -30 -1 457 0 458 -23 24 -22 24 23 -6 c20 -7 22 -4 22 30 0 21
-7 46 -17 56 -14 16 -14 18 -1 18 14 0 16 18 17 116 1 77 -2 113 -9 109 -5 -3
-10 -1 -10 6 0 8 -4 8 -13 1 -9 -8 -19 -6 -36 7 -25 19 -21 41 7 41 10 0 28 7
40 16 21 15 22 20 22 210 0 206 7 259 47 333 13 24 23 53 23 63 0 11 5 16 10
13 6 -3 13 2 17 12 4 10 17 36 31 57 21 33 21 38 6 32 -16 -6 -16 -5 2 15 16
19 12 18 -26 -6 -25 -15 -70 -45 -100 -66 l-56 -37 -23 134 c-13 74 -32 167
-41 206 l-17 73 -11 -35z m177 -3127 c25 -21 84 -72 131 -114 573 -517 766
-693 825 -750 57 -54 127 -116 155 -137 3 -2 -4 -10 -15 -18 -11 -7 -56 -49
-100 -92 -44 -43 -215 -207 -380 -364 -165 -157 -334 -321 -375 -364 -41 -43
-88 -87 -104 -98 l-30 -18 27 -24 c31 -26 33 -34 12 -34 -12 0 -14 -7 -9 -27
9 -37 18 -45 12 -10 -4 21 -1 27 12 27 12 0 19 -10 22 -32 3 -18 7 -39 9 -47
2 -9 -6 -17 -21 -21 -21 -5 -22 -7 -7 -13 18 -7 24 -37 7 -37 -6 0 -8 -12 -4
-27 4 -21 3 -24 -5 -13 -8 11 -14 12 -33 3 -13 -6 -38 -12 -56 -12 -29 0 -30
2 -17 15 8 9 15 23 16 32 0 11 2 12 6 5 2 -7 9 -13 14 -13 4 0 6 7 2 16 -5 13
-2 15 15 9 18 -5 22 -2 22 15 0 13 -8 24 -20 27 -13 4 -20 14 -20 32 l-1 26
-14 -25 -14 -25 -1 28 c0 16 -4 26 -9 23 -5 -3 -7 -16 -3 -29 5 -20 4 -21 -12
-8 -9 8 -15 20 -12 28 3 7 2 13 -2 13 -12 0 -52 -39 -52 -50 0 -21 -16 -9 -27
20 -8 20 -8 30 0 33 6 2 0 13 -13 25 -19 18 -21 22 -7 22 23 0 21 17 -3 25
-26 8 -27 45 -1 45 29 0 32 45 27 540 -2 250 0 669 5 930 7 434 6 476 -8 488
-12 8 -13 12 -3 12 7 0 34 -17 59 -37z m-298 -10 c10 -367 15 -444 29 -453 21
-14 28 -12 33 8 3 11 5 7 6 -10 2 -38 -9 -58 -30 -58 -18 0 -19 -11 -19 -249
0 -209 2 -251 15 -261 8 -7 15 -17 15 -22 0 -6 -7 -5 -15 2 -14 12 -15 -12
-12 -226 3 -131 8 -258 12 -281 5 -29 4 -43 -4 -43 -8 0 -11 -51 -11 -165 0
-130 3 -165 13 -163 15 4 17 -2 17 -42 0 -22 -5 -30 -17 -30 -13 0 -14 -3 -5
-12 7 -7 12 -19 12 -27 0 -14 -1 -14 -10 -1 -7 11 -10 5 -10 -24 l0 -39 -22
20 c-13 11 -32 25 -44 31 -11 6 -148 136 -305 289 -325 319 -532 513 -547 513
-6 0 -14 9 -17 21 -8 23 -59 48 -102 50 -24 2 -25 2 -5 6 36 7 26 31 -43 102
-36 37 -65 72 -65 77 0 5 27 33 59 61 32 29 103 94 158 145 173 162 222 207
552 503 178 160 329 295 335 302 19 21 26 14 27 -24z"/>
<path d="M756 4257 c3 -10 9 -15 12 -12 3 3 0 11 -7 18 -10 9 -11 8 -5 -6z"/>
</g>
</svg>
